<mxfile host="Electron" modified="2023-11-27T21:40:09.394Z" agent="Mozilla/5.0 (Windows NT 10.0; Win64; x64) AppleWebKit/537.36 (KHTML, like Gecko) draw.io/22.0.3 Chrome/114.0.5735.289 Electron/25.8.4 Safari/537.36" etag="9Os8szB6dDxIKO6Sc6MB" version="22.0.3" type="device">
  <diagram name="Страница 1" id="VT-tsYib6p4vzIX8ooeg">
    <mxGraphModel dx="2310" dy="2175" grid="1" gridSize="10" guides="1" tooltips="1" connect="1" arrows="1" fold="1" page="1" pageScale="1" pageWidth="827" pageHeight="1169" math="0" shadow="0">
      <root>
        <mxCell id="0" />
        <mxCell id="1" parent="0" />
        <mxCell id="4xEV15lNTDFhWGlAUv1L-33" value="" style="rounded=0;whiteSpace=wrap;html=1;" vertex="1" parent="1">
          <mxGeometry x="50" y="-995" width="350" height="515" as="geometry" />
        </mxCell>
        <mxCell id="4xEV15lNTDFhWGlAUv1L-31" value="" style="rounded=0;whiteSpace=wrap;html=1;" vertex="1" parent="1">
          <mxGeometry x="-827" y="-790" width="187" height="390" as="geometry" />
        </mxCell>
        <mxCell id="4xEV15lNTDFhWGlAUv1L-29" value="" style="rounded=0;whiteSpace=wrap;html=1;" vertex="1" parent="1">
          <mxGeometry x="-630" y="-510" width="210" height="150" as="geometry" />
        </mxCell>
        <mxCell id="4xEV15lNTDFhWGlAUv1L-26" value="" style="rounded=0;whiteSpace=wrap;html=1;" vertex="1" parent="1">
          <mxGeometry x="-320" y="-770" width="280" height="330" as="geometry" />
        </mxCell>
        <mxCell id="4xEV15lNTDFhWGlAUv1L-23" value="" style="rounded=0;whiteSpace=wrap;html=1;fillColor=default;" vertex="1" parent="1">
          <mxGeometry x="-600" y="-1110" width="610" height="310" as="geometry" />
        </mxCell>
        <mxCell id="eeoiKfyPnV7jnFPSHYmS-3" value="Users" style="swimlane;fontStyle=0;childLayout=stackLayout;horizontal=1;startSize=30;horizontalStack=0;resizeParent=1;resizeParentMax=0;resizeLast=0;collapsible=1;marginBottom=0;whiteSpace=wrap;html=1;" parent="1" vertex="1">
          <mxGeometry x="-170" y="-1080" width="140" height="240" as="geometry" />
        </mxCell>
        <mxCell id="eeoiKfyPnV7jnFPSHYmS-4" value="PK&amp;nbsp;user_id&amp;nbsp;" style="text;strokeColor=none;fillColor=none;align=left;verticalAlign=middle;spacingLeft=4;spacingRight=4;overflow=hidden;points=[[0,0.5],[1,0.5]];portConstraint=eastwest;rotatable=0;whiteSpace=wrap;html=1;" parent="eeoiKfyPnV7jnFPSHYmS-3" vertex="1">
          <mxGeometry y="30" width="140" height="30" as="geometry" />
        </mxCell>
        <mxCell id="eeoiKfyPnV7jnFPSHYmS-5" value="email" style="text;strokeColor=none;fillColor=none;align=left;verticalAlign=middle;spacingLeft=4;spacingRight=4;overflow=hidden;points=[[0,0.5],[1,0.5]];portConstraint=eastwest;rotatable=0;whiteSpace=wrap;html=1;" parent="eeoiKfyPnV7jnFPSHYmS-3" vertex="1">
          <mxGeometry y="60" width="140" height="30" as="geometry" />
        </mxCell>
        <mxCell id="eeoiKfyPnV7jnFPSHYmS-6" value="password" style="text;strokeColor=none;fillColor=none;align=left;verticalAlign=middle;spacingLeft=4;spacingRight=4;overflow=hidden;points=[[0,0.5],[1,0.5]];portConstraint=eastwest;rotatable=0;whiteSpace=wrap;html=1;" parent="eeoiKfyPnV7jnFPSHYmS-3" vertex="1">
          <mxGeometry y="90" width="140" height="30" as="geometry" />
        </mxCell>
        <mxCell id="eeoiKfyPnV7jnFPSHYmS-7" value="first_name" style="text;strokeColor=none;fillColor=none;align=left;verticalAlign=middle;spacingLeft=4;spacingRight=4;overflow=hidden;points=[[0,0.5],[1,0.5]];portConstraint=eastwest;rotatable=0;whiteSpace=wrap;html=1;" parent="eeoiKfyPnV7jnFPSHYmS-3" vertex="1">
          <mxGeometry y="120" width="140" height="30" as="geometry" />
        </mxCell>
        <mxCell id="eeoiKfyPnV7jnFPSHYmS-8" value="last_name" style="text;strokeColor=none;fillColor=none;align=left;verticalAlign=middle;spacingLeft=4;spacingRight=4;overflow=hidden;points=[[0,0.5],[1,0.5]];portConstraint=eastwest;rotatable=0;whiteSpace=wrap;html=1;" parent="eeoiKfyPnV7jnFPSHYmS-3" vertex="1">
          <mxGeometry y="150" width="140" height="30" as="geometry" />
        </mxCell>
        <mxCell id="eeoiKfyPnV7jnFPSHYmS-10" value="address" style="text;strokeColor=none;fillColor=none;align=left;verticalAlign=middle;spacingLeft=4;spacingRight=4;overflow=hidden;points=[[0,0.5],[1,0.5]];portConstraint=eastwest;rotatable=0;whiteSpace=wrap;html=1;" parent="eeoiKfyPnV7jnFPSHYmS-3" vertex="1">
          <mxGeometry y="180" width="140" height="30" as="geometry" />
        </mxCell>
        <mxCell id="eeoiKfyPnV7jnFPSHYmS-9" value="phone_number" style="text;strokeColor=none;fillColor=none;align=left;verticalAlign=middle;spacingLeft=4;spacingRight=4;overflow=hidden;points=[[0,0.5],[1,0.5]];portConstraint=eastwest;rotatable=0;whiteSpace=wrap;html=1;" parent="eeoiKfyPnV7jnFPSHYmS-3" vertex="1">
          <mxGeometry y="210" width="140" height="30" as="geometry" />
        </mxCell>
        <mxCell id="4xEV15lNTDFhWGlAUv1L-22" style="edgeStyle=orthogonalEdgeStyle;rounded=0;orthogonalLoop=1;jettySize=auto;html=1;entryX=0.5;entryY=0;entryDx=0;entryDy=0;endArrow=none;endFill=0;strokeWidth=2;" edge="1" parent="1" source="eeoiKfyPnV7jnFPSHYmS-11" target="eeoiKfyPnV7jnFPSHYmS-19">
          <mxGeometry relative="1" as="geometry" />
        </mxCell>
        <mxCell id="4xEV15lNTDFhWGlAUv1L-44" value="*" style="edgeLabel;html=1;align=center;verticalAlign=middle;resizable=0;points=[];fontSize=18;" vertex="1" connectable="0" parent="4xEV15lNTDFhWGlAUv1L-22">
          <mxGeometry x="0.8614" relative="1" as="geometry">
            <mxPoint as="offset" />
          </mxGeometry>
        </mxCell>
        <mxCell id="eeoiKfyPnV7jnFPSHYmS-11" value="Admins" style="swimlane;fontStyle=0;childLayout=stackLayout;horizontal=1;startSize=30;horizontalStack=0;resizeParent=1;resizeParentMax=0;resizeLast=0;collapsible=1;marginBottom=0;whiteSpace=wrap;html=1;" parent="1" vertex="1">
          <mxGeometry x="-370" y="-1080" width="140" height="120" as="geometry" />
        </mxCell>
        <mxCell id="eeoiKfyPnV7jnFPSHYmS-12" value="PK&amp;nbsp;admin_id" style="text;strokeColor=none;fillColor=none;align=left;verticalAlign=middle;spacingLeft=4;spacingRight=4;overflow=hidden;points=[[0,0.5],[1,0.5]];portConstraint=eastwest;rotatable=0;whiteSpace=wrap;html=1;" parent="eeoiKfyPnV7jnFPSHYmS-11" vertex="1">
          <mxGeometry y="30" width="140" height="30" as="geometry" />
        </mxCell>
        <mxCell id="eeoiKfyPnV7jnFPSHYmS-13" value="email" style="text;strokeColor=none;fillColor=none;align=left;verticalAlign=middle;spacingLeft=4;spacingRight=4;overflow=hidden;points=[[0,0.5],[1,0.5]];portConstraint=eastwest;rotatable=0;whiteSpace=wrap;html=1;" parent="eeoiKfyPnV7jnFPSHYmS-11" vertex="1">
          <mxGeometry y="60" width="140" height="30" as="geometry" />
        </mxCell>
        <mxCell id="eeoiKfyPnV7jnFPSHYmS-14" value="password" style="text;strokeColor=none;fillColor=none;align=left;verticalAlign=middle;spacingLeft=4;spacingRight=4;overflow=hidden;points=[[0,0.5],[1,0.5]];portConstraint=eastwest;rotatable=0;whiteSpace=wrap;html=1;" parent="eeoiKfyPnV7jnFPSHYmS-11" vertex="1">
          <mxGeometry y="90" width="140" height="30" as="geometry" />
        </mxCell>
        <mxCell id="4xEV15lNTDFhWGlAUv1L-18" style="edgeStyle=orthogonalEdgeStyle;rounded=0;orthogonalLoop=1;jettySize=auto;html=1;entryX=0;entryY=0.5;entryDx=0;entryDy=0;strokeWidth=2;endArrow=none;endFill=0;" edge="1" parent="1" source="eeoiKfyPnV7jnFPSHYmS-19" target="eeoiKfyPnV7jnFPSHYmS-50">
          <mxGeometry relative="1" as="geometry" />
        </mxCell>
        <mxCell id="4xEV15lNTDFhWGlAUv1L-43" value="1..*" style="edgeLabel;html=1;align=center;verticalAlign=middle;resizable=0;points=[];fontSize=18;" vertex="1" connectable="0" parent="4xEV15lNTDFhWGlAUv1L-18">
          <mxGeometry x="0.173" y="2" relative="1" as="geometry">
            <mxPoint as="offset" />
          </mxGeometry>
        </mxCell>
        <mxCell id="4xEV15lNTDFhWGlAUv1L-46" style="edgeStyle=orthogonalEdgeStyle;rounded=0;orthogonalLoop=1;jettySize=auto;html=1;endArrow=none;endFill=0;strokeWidth=2;" edge="1" parent="1" source="eeoiKfyPnV7jnFPSHYmS-19" target="eeoiKfyPnV7jnFPSHYmS-44">
          <mxGeometry relative="1" as="geometry">
            <Array as="points">
              <mxPoint x="-160" y="-440" />
              <mxPoint x="300" y="-440" />
            </Array>
          </mxGeometry>
        </mxCell>
        <mxCell id="4xEV15lNTDFhWGlAUv1L-47" value="1" style="edgeLabel;html=1;align=center;verticalAlign=middle;resizable=0;points=[];fontSize=18;" vertex="1" connectable="0" parent="4xEV15lNTDFhWGlAUv1L-46">
          <mxGeometry x="0.9313" y="2" relative="1" as="geometry">
            <mxPoint as="offset" />
          </mxGeometry>
        </mxCell>
        <mxCell id="eeoiKfyPnV7jnFPSHYmS-19" value="Books" style="swimlane;fontStyle=0;childLayout=stackLayout;horizontal=1;startSize=30;horizontalStack=0;resizeParent=1;resizeParentMax=0;resizeLast=0;collapsible=1;marginBottom=0;whiteSpace=wrap;html=1;" parent="1" vertex="1">
          <mxGeometry x="-260" y="-735" width="140" height="240" as="geometry">
            <mxRectangle x="460" y="90" width="70" height="30" as="alternateBounds" />
          </mxGeometry>
        </mxCell>
        <mxCell id="eeoiKfyPnV7jnFPSHYmS-20" value="PK book_id" style="text;strokeColor=none;fillColor=none;align=left;verticalAlign=middle;spacingLeft=4;spacingRight=4;overflow=hidden;points=[[0,0.5],[1,0.5]];portConstraint=eastwest;rotatable=0;whiteSpace=wrap;html=1;" parent="eeoiKfyPnV7jnFPSHYmS-19" vertex="1">
          <mxGeometry y="30" width="140" height="30" as="geometry" />
        </mxCell>
        <mxCell id="eeoiKfyPnV7jnFPSHYmS-21" value="title" style="text;strokeColor=none;fillColor=none;align=left;verticalAlign=middle;spacingLeft=4;spacingRight=4;overflow=hidden;points=[[0,0.5],[1,0.5]];portConstraint=eastwest;rotatable=0;whiteSpace=wrap;html=1;" parent="eeoiKfyPnV7jnFPSHYmS-19" vertex="1">
          <mxGeometry y="60" width="140" height="30" as="geometry" />
        </mxCell>
        <mxCell id="eeoiKfyPnV7jnFPSHYmS-24" value="description" style="text;strokeColor=none;fillColor=none;align=left;verticalAlign=middle;spacingLeft=4;spacingRight=4;overflow=hidden;points=[[0,0.5],[1,0.5]];portConstraint=eastwest;rotatable=0;whiteSpace=wrap;html=1;" parent="eeoiKfyPnV7jnFPSHYmS-19" vertex="1">
          <mxGeometry y="90" width="140" height="30" as="geometry" />
        </mxCell>
        <mxCell id="eeoiKfyPnV7jnFPSHYmS-25" value="price" style="text;strokeColor=none;fillColor=none;align=left;verticalAlign=middle;spacingLeft=4;spacingRight=4;overflow=hidden;points=[[0,0.5],[1,0.5]];portConstraint=eastwest;rotatable=0;whiteSpace=wrap;html=1;" parent="eeoiKfyPnV7jnFPSHYmS-19" vertex="1">
          <mxGeometry y="120" width="140" height="30" as="geometry" />
        </mxCell>
        <mxCell id="eeoiKfyPnV7jnFPSHYmS-26" value="year_published" style="text;strokeColor=none;fillColor=none;align=left;verticalAlign=middle;spacingLeft=4;spacingRight=4;overflow=hidden;points=[[0,0.5],[1,0.5]];portConstraint=eastwest;rotatable=0;whiteSpace=wrap;html=1;" parent="eeoiKfyPnV7jnFPSHYmS-19" vertex="1">
          <mxGeometry y="150" width="140" height="30" as="geometry" />
        </mxCell>
        <mxCell id="eeoiKfyPnV7jnFPSHYmS-27" value="FK 1 publisher_id" style="text;strokeColor=none;fillColor=none;align=left;verticalAlign=middle;spacingLeft=4;spacingRight=4;overflow=hidden;points=[[0,0.5],[1,0.5]];portConstraint=eastwest;rotatable=0;whiteSpace=wrap;html=1;" parent="eeoiKfyPnV7jnFPSHYmS-19" vertex="1">
          <mxGeometry y="180" width="140" height="30" as="geometry" />
        </mxCell>
        <mxCell id="eeoiKfyPnV7jnFPSHYmS-70" value="FK 2 admin_id" style="text;strokeColor=none;fillColor=none;align=left;verticalAlign=middle;spacingLeft=4;spacingRight=4;overflow=hidden;points=[[0,0.5],[1,0.5]];portConstraint=eastwest;rotatable=0;whiteSpace=wrap;html=1;" parent="eeoiKfyPnV7jnFPSHYmS-19" vertex="1">
          <mxGeometry y="210" width="140" height="30" as="geometry" />
        </mxCell>
        <mxCell id="4xEV15lNTDFhWGlAUv1L-10" style="edgeStyle=orthogonalEdgeStyle;rounded=0;orthogonalLoop=1;jettySize=auto;html=1;entryX=0.5;entryY=0;entryDx=0;entryDy=0;strokeWidth=2;endArrow=none;endFill=0;" edge="1" parent="1" source="eeoiKfyPnV7jnFPSHYmS-28" target="AEu5U4cZeC9CnwkRI0KG-2">
          <mxGeometry relative="1" as="geometry" />
        </mxCell>
        <mxCell id="4xEV15lNTDFhWGlAUv1L-39" value="1..*" style="edgeLabel;html=1;align=center;verticalAlign=middle;resizable=0;points=[];spacing=4;fontSize=18;" vertex="1" connectable="0" parent="4xEV15lNTDFhWGlAUv1L-10">
          <mxGeometry x="0.8913" y="-1" relative="1" as="geometry">
            <mxPoint y="1" as="offset" />
          </mxGeometry>
        </mxCell>
        <mxCell id="eeoiKfyPnV7jnFPSHYmS-28" value="Authors" style="swimlane;fontStyle=0;childLayout=stackLayout;horizontal=1;startSize=30;horizontalStack=0;resizeParent=1;resizeParentMax=0;resizeLast=0;collapsible=1;marginBottom=0;whiteSpace=wrap;html=1;" parent="1" vertex="1">
          <mxGeometry x="-570" y="-970" width="140" height="90" as="geometry" />
        </mxCell>
        <mxCell id="eeoiKfyPnV7jnFPSHYmS-29" value="PK&amp;nbsp;author_id" style="text;strokeColor=none;fillColor=none;align=left;verticalAlign=middle;spacingLeft=4;spacingRight=4;overflow=hidden;points=[[0,0.5],[1,0.5]];portConstraint=eastwest;rotatable=0;whiteSpace=wrap;html=1;" parent="eeoiKfyPnV7jnFPSHYmS-28" vertex="1">
          <mxGeometry y="30" width="140" height="30" as="geometry" />
        </mxCell>
        <mxCell id="eeoiKfyPnV7jnFPSHYmS-30" value="author_name" style="text;strokeColor=none;fillColor=none;align=left;verticalAlign=middle;spacingLeft=4;spacingRight=4;overflow=hidden;points=[[0,0.5],[1,0.5]];portConstraint=eastwest;rotatable=0;whiteSpace=wrap;html=1;" parent="eeoiKfyPnV7jnFPSHYmS-28" vertex="1">
          <mxGeometry y="60" width="140" height="30" as="geometry" />
        </mxCell>
        <mxCell id="eeoiKfyPnV7jnFPSHYmS-39" value="Orders" style="swimlane;fontStyle=0;childLayout=stackLayout;horizontal=1;startSize=30;horizontalStack=0;resizeParent=1;resizeParentMax=0;resizeLast=0;collapsible=1;marginBottom=0;whiteSpace=wrap;html=1;" parent="1" vertex="1">
          <mxGeometry x="80" y="-780" width="140" height="270" as="geometry" />
        </mxCell>
        <mxCell id="eeoiKfyPnV7jnFPSHYmS-40" value="PK&amp;nbsp;order_id" style="text;strokeColor=none;fillColor=none;align=left;verticalAlign=middle;spacingLeft=4;spacingRight=4;overflow=hidden;points=[[0,0.5],[1,0.5]];portConstraint=eastwest;rotatable=0;whiteSpace=wrap;html=1;" parent="eeoiKfyPnV7jnFPSHYmS-39" vertex="1">
          <mxGeometry y="30" width="140" height="30" as="geometry" />
        </mxCell>
        <mxCell id="eeoiKfyPnV7jnFPSHYmS-41" value="FK 1 user_id" style="text;strokeColor=none;fillColor=none;align=left;verticalAlign=middle;spacingLeft=4;spacingRight=4;overflow=hidden;points=[[0,0.5],[1,0.5]];portConstraint=eastwest;rotatable=0;whiteSpace=wrap;html=1;" parent="eeoiKfyPnV7jnFPSHYmS-39" vertex="1">
          <mxGeometry y="60" width="140" height="30" as="geometry" />
        </mxCell>
        <mxCell id="eeoiKfyPnV7jnFPSHYmS-42" value="order_date" style="text;strokeColor=none;fillColor=none;align=left;verticalAlign=middle;spacingLeft=4;spacingRight=4;overflow=hidden;points=[[0,0.5],[1,0.5]];portConstraint=eastwest;rotatable=0;whiteSpace=wrap;html=1;" parent="eeoiKfyPnV7jnFPSHYmS-39" vertex="1">
          <mxGeometry y="90" width="140" height="30" as="geometry" />
        </mxCell>
        <mxCell id="eeoiKfyPnV7jnFPSHYmS-43" value="delivery_date" style="text;strokeColor=none;fillColor=none;align=left;verticalAlign=middle;spacingLeft=4;spacingRight=4;overflow=hidden;points=[[0,0.5],[1,0.5]];portConstraint=eastwest;rotatable=0;whiteSpace=wrap;html=1;" parent="eeoiKfyPnV7jnFPSHYmS-39" vertex="1">
          <mxGeometry y="120" width="140" height="30" as="geometry" />
        </mxCell>
        <mxCell id="eeoiKfyPnV7jnFPSHYmS-50" value="FK 2 book_id" style="text;strokeColor=none;fillColor=none;align=left;verticalAlign=middle;spacingLeft=4;spacingRight=4;overflow=hidden;points=[[0,0.5],[1,0.5]];portConstraint=eastwest;rotatable=0;whiteSpace=wrap;html=1;" parent="eeoiKfyPnV7jnFPSHYmS-39" vertex="1">
          <mxGeometry y="150" width="140" height="30" as="geometry" />
        </mxCell>
        <mxCell id="eeoiKfyPnV7jnFPSHYmS-51" value="quantity" style="text;strokeColor=none;fillColor=none;align=left;verticalAlign=middle;spacingLeft=4;spacingRight=4;overflow=hidden;points=[[0,0.5],[1,0.5]];portConstraint=eastwest;rotatable=0;whiteSpace=wrap;html=1;" parent="eeoiKfyPnV7jnFPSHYmS-39" vertex="1">
          <mxGeometry y="180" width="140" height="30" as="geometry" />
        </mxCell>
        <mxCell id="eeoiKfyPnV7jnFPSHYmS-52" value="price" style="text;strokeColor=none;fillColor=none;align=left;verticalAlign=middle;spacingLeft=4;spacingRight=4;overflow=hidden;points=[[0,0.5],[1,0.5]];portConstraint=eastwest;rotatable=0;whiteSpace=wrap;html=1;" parent="eeoiKfyPnV7jnFPSHYmS-39" vertex="1">
          <mxGeometry y="210" width="140" height="30" as="geometry" />
        </mxCell>
        <mxCell id="eeoiKfyPnV7jnFPSHYmS-72" value="FK 3 admin_id" style="text;strokeColor=none;fillColor=none;align=left;verticalAlign=middle;spacingLeft=4;spacingRight=4;overflow=hidden;points=[[0,0.5],[1,0.5]];portConstraint=eastwest;rotatable=0;whiteSpace=wrap;html=1;" parent="eeoiKfyPnV7jnFPSHYmS-39" vertex="1">
          <mxGeometry y="240" width="140" height="30" as="geometry" />
        </mxCell>
        <mxCell id="eeoiKfyPnV7jnFPSHYmS-44" value="Reviews" style="swimlane;fontStyle=0;childLayout=stackLayout;horizontal=1;startSize=30;horizontalStack=0;resizeParent=1;resizeParentMax=0;resizeLast=0;collapsible=1;marginBottom=0;whiteSpace=wrap;html=1;" parent="1" vertex="1">
          <mxGeometry x="230" y="-960" width="140" height="210" as="geometry" />
        </mxCell>
        <mxCell id="4xEV15lNTDFhWGlAUv1L-49" value="PK&amp;nbsp;review_id" style="text;strokeColor=none;fillColor=none;align=left;verticalAlign=middle;spacingLeft=4;spacingRight=4;overflow=hidden;points=[[0,0.5],[1,0.5]];portConstraint=eastwest;rotatable=0;whiteSpace=wrap;html=1;" vertex="1" parent="eeoiKfyPnV7jnFPSHYmS-44">
          <mxGeometry y="30" width="140" height="30" as="geometry" />
        </mxCell>
        <mxCell id="eeoiKfyPnV7jnFPSHYmS-45" value="PK&amp;nbsp;review_id" style="text;strokeColor=none;fillColor=none;align=left;verticalAlign=middle;spacingLeft=4;spacingRight=4;overflow=hidden;points=[[0,0.5],[1,0.5]];portConstraint=eastwest;rotatable=0;whiteSpace=wrap;html=1;" parent="eeoiKfyPnV7jnFPSHYmS-44" vertex="1">
          <mxGeometry y="60" width="140" height="30" as="geometry" />
        </mxCell>
        <mxCell id="eeoiKfyPnV7jnFPSHYmS-46" value="FK 1 user_id" style="text;strokeColor=none;fillColor=none;align=left;verticalAlign=middle;spacingLeft=4;spacingRight=4;overflow=hidden;points=[[0,0.5],[1,0.5]];portConstraint=eastwest;rotatable=0;whiteSpace=wrap;html=1;" parent="eeoiKfyPnV7jnFPSHYmS-44" vertex="1">
          <mxGeometry y="90" width="140" height="30" as="geometry" />
        </mxCell>
        <mxCell id="eeoiKfyPnV7jnFPSHYmS-47" value="FK 2 book_id" style="text;strokeColor=none;fillColor=none;align=left;verticalAlign=middle;spacingLeft=4;spacingRight=4;overflow=hidden;points=[[0,0.5],[1,0.5]];portConstraint=eastwest;rotatable=0;whiteSpace=wrap;html=1;" parent="eeoiKfyPnV7jnFPSHYmS-44" vertex="1">
          <mxGeometry y="120" width="140" height="30" as="geometry" />
        </mxCell>
        <mxCell id="eeoiKfyPnV7jnFPSHYmS-48" value="rating" style="text;strokeColor=none;fillColor=none;align=left;verticalAlign=middle;spacingLeft=4;spacingRight=4;overflow=hidden;points=[[0,0.5],[1,0.5]];portConstraint=eastwest;rotatable=0;whiteSpace=wrap;html=1;" parent="eeoiKfyPnV7jnFPSHYmS-44" vertex="1">
          <mxGeometry y="150" width="140" height="30" as="geometry" />
        </mxCell>
        <mxCell id="eeoiKfyPnV7jnFPSHYmS-53" value="review" style="text;strokeColor=none;fillColor=none;align=left;verticalAlign=middle;spacingLeft=4;spacingRight=4;overflow=hidden;points=[[0,0.5],[1,0.5]];portConstraint=eastwest;rotatable=0;whiteSpace=wrap;html=1;" parent="eeoiKfyPnV7jnFPSHYmS-44" vertex="1">
          <mxGeometry y="180" width="140" height="30" as="geometry" />
        </mxCell>
        <mxCell id="4xEV15lNTDFhWGlAUv1L-9" style="edgeStyle=orthogonalEdgeStyle;rounded=0;orthogonalLoop=1;jettySize=auto;html=1;entryX=0.5;entryY=0;entryDx=0;entryDy=0;endArrow=none;endFill=0;strokeWidth=2;" edge="1" parent="1" source="eeoiKfyPnV7jnFPSHYmS-54" target="AEu5U4cZeC9CnwkRI0KG-5">
          <mxGeometry relative="1" as="geometry" />
        </mxCell>
        <mxCell id="4xEV15lNTDFhWGlAUv1L-41" value="1..*" style="edgeLabel;html=1;align=center;verticalAlign=middle;resizable=0;points=[];fontSize=18;" vertex="1" connectable="0" parent="4xEV15lNTDFhWGlAUv1L-9">
          <mxGeometry x="0.5375" y="-1" relative="1" as="geometry">
            <mxPoint as="offset" />
          </mxGeometry>
        </mxCell>
        <mxCell id="eeoiKfyPnV7jnFPSHYmS-54" value="Categories" style="swimlane;fontStyle=0;childLayout=stackLayout;horizontal=1;startSize=30;horizontalStack=0;resizeParent=1;resizeParentMax=0;resizeLast=0;collapsible=1;marginBottom=0;whiteSpace=wrap;html=1;" parent="1" vertex="1">
          <mxGeometry x="-810" y="-730" width="140" height="90" as="geometry" />
        </mxCell>
        <mxCell id="eeoiKfyPnV7jnFPSHYmS-55" value="PK&amp;nbsp;category_id" style="text;strokeColor=none;fillColor=none;align=left;verticalAlign=middle;spacingLeft=4;spacingRight=4;overflow=hidden;points=[[0,0.5],[1,0.5]];portConstraint=eastwest;rotatable=0;whiteSpace=wrap;html=1;" parent="eeoiKfyPnV7jnFPSHYmS-54" vertex="1">
          <mxGeometry y="30" width="140" height="30" as="geometry" />
        </mxCell>
        <mxCell id="eeoiKfyPnV7jnFPSHYmS-56" value="category_name" style="text;strokeColor=none;fillColor=none;align=left;verticalAlign=middle;spacingLeft=4;spacingRight=4;overflow=hidden;points=[[0,0.5],[1,0.5]];portConstraint=eastwest;rotatable=0;whiteSpace=wrap;html=1;" parent="eeoiKfyPnV7jnFPSHYmS-54" vertex="1">
          <mxGeometry y="60" width="140" height="30" as="geometry" />
        </mxCell>
        <mxCell id="eeoiKfyPnV7jnFPSHYmS-65" style="edgeStyle=orthogonalEdgeStyle;rounded=0;orthogonalLoop=1;jettySize=auto;html=1;exitX=1;exitY=0.5;exitDx=0;exitDy=0;strokeWidth=2;endArrow=none;endFill=0;" parent="1" source="eeoiKfyPnV7jnFPSHYmS-4" edge="1">
          <mxGeometry relative="1" as="geometry">
            <Array as="points">
              <mxPoint x="-30" y="-1040" />
              <mxPoint x="70" y="-1040" />
              <mxPoint x="70" y="-915" />
            </Array>
            <mxPoint x="230" y="-915" as="targetPoint" />
          </mxGeometry>
        </mxCell>
        <mxCell id="4xEV15lNTDFhWGlAUv1L-48" value="1" style="edgeLabel;html=1;align=center;verticalAlign=middle;resizable=0;points=[];fontSize=18;" vertex="1" connectable="0" parent="eeoiKfyPnV7jnFPSHYmS-65">
          <mxGeometry x="0.8408" relative="1" as="geometry">
            <mxPoint as="offset" />
          </mxGeometry>
        </mxCell>
        <mxCell id="eeoiKfyPnV7jnFPSHYmS-66" style="edgeStyle=orthogonalEdgeStyle;rounded=0;orthogonalLoop=1;jettySize=auto;html=1;exitX=1;exitY=0.5;exitDx=0;exitDy=0;entryX=0;entryY=0.5;entryDx=0;entryDy=0;strokeWidth=2;endArrow=none;endFill=0;" parent="1" source="eeoiKfyPnV7jnFPSHYmS-4" target="eeoiKfyPnV7jnFPSHYmS-41" edge="1">
          <mxGeometry relative="1" as="geometry">
            <mxPoint x="310" y="-990" as="targetPoint" />
            <Array as="points">
              <mxPoint x="-30" y="-1000" />
              <mxPoint x="20" y="-1000" />
              <mxPoint x="20" y="-705" />
            </Array>
          </mxGeometry>
        </mxCell>
        <mxCell id="4xEV15lNTDFhWGlAUv1L-45" value="1..*" style="edgeLabel;html=1;align=center;verticalAlign=middle;resizable=0;points=[];fontSize=18;" vertex="1" connectable="0" parent="eeoiKfyPnV7jnFPSHYmS-66">
          <mxGeometry x="0.9221" y="2" relative="1" as="geometry">
            <mxPoint as="offset" />
          </mxGeometry>
        </mxCell>
        <mxCell id="AEu5U4cZeC9CnwkRI0KG-2" value="Authors_Books" style="swimlane;fontStyle=0;childLayout=stackLayout;horizontal=1;startSize=30;horizontalStack=0;resizeParent=1;resizeParentMax=0;resizeLast=0;collapsible=1;marginBottom=0;whiteSpace=wrap;html=1;" parent="1" vertex="1">
          <mxGeometry x="-570" y="-460" width="140" height="90" as="geometry" />
        </mxCell>
        <mxCell id="AEu5U4cZeC9CnwkRI0KG-3" value="FK author_id" style="text;strokeColor=none;fillColor=none;align=left;verticalAlign=middle;spacingLeft=4;spacingRight=4;overflow=hidden;points=[[0,0.5],[1,0.5]];portConstraint=eastwest;rotatable=0;whiteSpace=wrap;html=1;" parent="AEu5U4cZeC9CnwkRI0KG-2" vertex="1">
          <mxGeometry y="30" width="140" height="30" as="geometry" />
        </mxCell>
        <mxCell id="AEu5U4cZeC9CnwkRI0KG-4" value="FK book_id" style="text;strokeColor=none;fillColor=none;align=left;verticalAlign=middle;spacingLeft=4;spacingRight=4;overflow=hidden;points=[[0,0.5],[1,0.5]];portConstraint=eastwest;rotatable=0;whiteSpace=wrap;html=1;" parent="AEu5U4cZeC9CnwkRI0KG-2" vertex="1">
          <mxGeometry y="60" width="140" height="30" as="geometry" />
        </mxCell>
        <mxCell id="4xEV15lNTDFhWGlAUv1L-20" style="edgeStyle=orthogonalEdgeStyle;rounded=0;orthogonalLoop=1;jettySize=auto;html=1;strokeWidth=2;endArrow=none;endFill=0;" edge="1" parent="1" source="AEu5U4cZeC9CnwkRI0KG-5" target="eeoiKfyPnV7jnFPSHYmS-19">
          <mxGeometry relative="1" as="geometry">
            <Array as="points">
              <mxPoint x="-740" y="-320" />
              <mxPoint x="-220" y="-320" />
            </Array>
          </mxGeometry>
        </mxCell>
        <mxCell id="4xEV15lNTDFhWGlAUv1L-50" value="1..*" style="edgeLabel;html=1;align=center;verticalAlign=middle;resizable=0;points=[];fontSize=18;" vertex="1" connectable="0" parent="4xEV15lNTDFhWGlAUv1L-20">
          <mxGeometry x="0.9309" y="3" relative="1" as="geometry">
            <mxPoint y="-1" as="offset" />
          </mxGeometry>
        </mxCell>
        <mxCell id="AEu5U4cZeC9CnwkRI0KG-5" value="Categories_Books" style="swimlane;fontStyle=0;childLayout=stackLayout;horizontal=1;startSize=30;horizontalStack=0;resizeParent=1;resizeParentMax=0;resizeLast=0;collapsible=1;marginBottom=0;whiteSpace=wrap;html=1;" parent="1" vertex="1">
          <mxGeometry x="-810" y="-530" width="140" height="90" as="geometry" />
        </mxCell>
        <mxCell id="AEu5U4cZeC9CnwkRI0KG-6" value="FK&amp;nbsp;category_id" style="text;strokeColor=none;fillColor=none;align=left;verticalAlign=middle;spacingLeft=4;spacingRight=4;overflow=hidden;points=[[0,0.5],[1,0.5]];portConstraint=eastwest;rotatable=0;whiteSpace=wrap;html=1;" parent="AEu5U4cZeC9CnwkRI0KG-5" vertex="1">
          <mxGeometry y="30" width="140" height="30" as="geometry" />
        </mxCell>
        <mxCell id="AEu5U4cZeC9CnwkRI0KG-7" value="FK book_id" style="text;strokeColor=none;fillColor=none;align=left;verticalAlign=middle;spacingLeft=4;spacingRight=4;overflow=hidden;points=[[0,0.5],[1,0.5]];portConstraint=eastwest;rotatable=0;whiteSpace=wrap;html=1;" parent="AEu5U4cZeC9CnwkRI0KG-5" vertex="1">
          <mxGeometry y="60" width="140" height="30" as="geometry" />
        </mxCell>
        <mxCell id="4xEV15lNTDFhWGlAUv1L-4" value="Role" style="text;html=1;strokeColor=none;fillColor=none;align=center;verticalAlign=middle;whiteSpace=wrap;rounded=0;" vertex="1" parent="1">
          <mxGeometry x="-660" y="-20" width="60" height="30" as="geometry" />
        </mxCell>
        <mxCell id="4xEV15lNTDFhWGlAUv1L-19" style="edgeStyle=orthogonalEdgeStyle;rounded=0;orthogonalLoop=1;jettySize=auto;html=1;strokeWidth=2;endArrow=none;endFill=0;" edge="1" parent="1" source="AEu5U4cZeC9CnwkRI0KG-3" target="eeoiKfyPnV7jnFPSHYmS-19">
          <mxGeometry relative="1" as="geometry" />
        </mxCell>
        <mxCell id="4xEV15lNTDFhWGlAUv1L-42" value="1" style="edgeLabel;html=1;align=center;verticalAlign=middle;resizable=0;points=[];fontSize=18;" vertex="1" connectable="0" parent="4xEV15lNTDFhWGlAUv1L-19">
          <mxGeometry x="-0.2489" y="1" relative="1" as="geometry">
            <mxPoint as="offset" />
          </mxGeometry>
        </mxCell>
        <mxCell id="4xEV15lNTDFhWGlAUv1L-24" value="ROLE" style="text;html=1;strokeColor=none;fillColor=none;align=center;verticalAlign=middle;whiteSpace=wrap;rounded=0;" vertex="1" parent="1">
          <mxGeometry x="-590" y="-1100" width="60" height="30" as="geometry" />
        </mxCell>
        <mxCell id="4xEV15lNTDFhWGlAUv1L-28" value="ADMINS" style="text;html=1;strokeColor=none;fillColor=none;align=center;verticalAlign=middle;whiteSpace=wrap;rounded=0;" vertex="1" parent="1">
          <mxGeometry x="-320" y="-770" width="60" height="30" as="geometry" />
        </mxCell>
        <mxCell id="4xEV15lNTDFhWGlAUv1L-30" value="AUTHORS" style="text;html=1;strokeColor=none;fillColor=none;align=center;verticalAlign=middle;whiteSpace=wrap;rounded=0;" vertex="1" parent="1">
          <mxGeometry x="-630" y="-510" width="60" height="30" as="geometry" />
        </mxCell>
        <mxCell id="4xEV15lNTDFhWGlAUv1L-32" value="ENTITY" style="text;html=1;strokeColor=none;fillColor=none;align=center;verticalAlign=middle;whiteSpace=wrap;rounded=0;" vertex="1" parent="1">
          <mxGeometry x="-827" y="-790" width="60" height="30" as="geometry" />
        </mxCell>
        <mxCell id="4xEV15lNTDFhWGlAUv1L-34" value="USERS" style="text;html=1;strokeColor=none;fillColor=none;align=center;verticalAlign=middle;whiteSpace=wrap;rounded=0;" vertex="1" parent="1">
          <mxGeometry x="70" y="-990" width="60" height="30" as="geometry" />
        </mxCell>
        <mxCell id="4xEV15lNTDFhWGlAUv1L-36" value="" style="endArrow=none;html=1;rounded=0;entryX=0;entryY=0.5;entryDx=0;entryDy=0;strokeWidth=2;" edge="1" parent="1" target="4xEV15lNTDFhWGlAUv1L-23">
          <mxGeometry width="50" height="50" relative="1" as="geometry">
            <mxPoint x="-740" y="-730" as="sourcePoint" />
            <mxPoint x="-690" y="-780" as="targetPoint" />
            <Array as="points">
              <mxPoint x="-740" y="-955" />
            </Array>
          </mxGeometry>
        </mxCell>
        <mxCell id="4xEV15lNTDFhWGlAUv1L-40" value="1" style="edgeLabel;html=1;align=center;verticalAlign=middle;resizable=0;points=[];fontSize=18;" vertex="1" connectable="0" parent="4xEV15lNTDFhWGlAUv1L-36">
          <mxGeometry x="-0.5319" relative="1" as="geometry">
            <mxPoint as="offset" />
          </mxGeometry>
        </mxCell>
      </root>
    </mxGraphModel>
  </diagram>
</mxfile>
